<?xml version="1.0" standalone="no"?>
<!DOCTYPE svg PUBLIC "-//W3C//DTD SVG 20010904//EN"
 "http://www.w3.org/TR/2001/REC-SVG-20010904/DTD/svg10.dtd">
<svg version="1.0" xmlns="http://www.w3.org/2000/svg"
 width="58.000000pt" height="73.000000pt" viewBox="0 0 58.000000 73.000000"
 preserveAspectRatio="xMidYMid meet">
<metadata>
Created by potrace 1.16, written by Peter Selinger 2001-2019
</metadata>
<g transform="translate(0.000000,73.000000) scale(0.100000,-0.100000)"
fill="#000000" stroke="none">
<path d="M231 626 c-19 -7 -43 -23 -53 -37 -20 -26 -35 -117 -24 -145 12 -31
30 3 27 51 -2 36 2 49 22 69 22 22 33 24 88 23 60 -2 64 -4 86 -36 13 -19 23
-49 23 -67 0 -31 -2 -33 -42 -37 l-43 -4 43 -1 c42 -2 42 -2 41 -39 -2 -57
-13 -87 -37 -99 -12 -6 -30 -18 -40 -27 -27 -24 -56 -21 -104 12 -24 16 -45
26 -48 22 -3 -5 -14 -11 -26 -15 -11 -3 -30 -20 -43 -36 -12 -17 -40 -38 -62
-46 l-39 -16 0 -88 0 -88 63 -6 c34 -3 137 -8 228 -10 l165 -6 -2 40 c-2 33 1
40 17 40 20 0 39 -28 39 -59 0 -14 6 -21 19 -21 21 0 31 49 31 156 l0 62 -52
17 c-29 10 -65 29 -80 43 -24 22 -26 30 -22 76 3 28 10 75 16 104 10 54 -2
112 -23 112 -5 0 -9 7 -9 15 0 18 -70 55 -102 54 -13 0 -39 -6 -57 -13z m15
-392 c16 -2 38 -6 49 -9 12 -2 34 2 50 11 23 12 30 12 37 2 15 -25 8 -40 -46
-95 l-53 -56 -61 39 c-69 44 -103 94 -81 120 7 8 18 13 26 10 7 -3 13 0 13 6
0 6 8 4 19 -6 10 -9 31 -19 47 -22z"/>
</g>
</svg>
